<?xml version="1.0" standalone="no"?>
<!DOCTYPE svg PUBLIC "-//W3C//DTD SVG 20010904//EN"
 "http://www.w3.org/TR/2001/REC-SVG-20010904/DTD/svg10.dtd">
<svg version="1.0" xmlns="http://www.w3.org/2000/svg"
 width="1019.000000pt" height="1019.000000pt" viewBox="0 0 1019.000000 1019.000000"
 preserveAspectRatio="xMidYMid meet">

<g transform="translate(0.000000,1019.000000) scale(0.100000,-0.100000)"
fill="#000000" stroke="none">
<path d="M4070 8150 c-277 -42 -406 -68 -456 -92 -47 -21 -99 -74 -115 -115
-15 -40 -10 -120 11 -180 11 -31 18 -58 17 -60 -2 -1 -32 2 -67 9 -46 8 -76 8
-111 0 -39 -9 -65 -8 -148 8 -363 71 -779 32 -1158 -107 -225 -82 -504 -230
-723 -382 -325 -226 -855 -719 -978 -910 -49 -76 -51 -110 -12 -243 38 -134
51 -158 86 -158 77 0 210 101 575 440 130 120 272 244 399 347 306 247 720
474 1080 591 117 38 170 50 310 71 83 13 259 -12 879 -125 271 -49 317 -60
415 -101 61 -25 131 -55 155 -68 l44 -22 -36 -7 c-55 -10 -287 -74 -327 -90
-19 -7 -82 -28 -140 -46 -58 -18 -109 -37 -114 -42 -6 -4 -18 -8 -29 -8 -30 0
-57 -19 -50 -36 5 -14 28 -15 174 -12 131 2 163 0 146 -8 -20 -11 -598 -212
-1017 -355 -85 -29 -160 -56 -166 -61 -6 -4 -33 -50 -59 -101 l-49 -94 118
-394 c65 -217 167 -542 227 -724 108 -332 170 -545 274 -950 31 -121 85 -326
120 -455 89 -326 165 -652 219 -937 41 -213 49 -281 70 -578 17 -224 29 -342
37 -352 15 -17 557 -291 603 -304 38 -11 56 4 56 48 0 30 3 34 20 28 18 -6 19
-4 10 20 -6 15 -17 118 -25 229 -31 433 -48 613 -86 891 -11 88 -25 187 -29
220 -4 33 -21 139 -38 235 -16 96 -35 213 -42 260 -15 110 -46 288 -72 420
-41 209 -119 765 -139 998 -10 112 -10 147 -1 162 11 18 8 21 -21 34 -19 7
-43 17 -54 20 -16 5 -22 17 -26 49 -2 23 -14 83 -26 132 -47 200 -124 559
-135 631 -8 54 20 97 89 137 110 65 465 228 1305 600 390 172 555 241 580 240
19 0 103 -26 185 -57 310 -118 309 -118 491 -145 107 -17 265 -44 429 -75 17
-3 111 -20 210 -37 99 -16 195 -33 213 -36 37 -6 76 -50 134 -148 115 -193
177 -400 194 -637 6 -86 4 -98 -20 -155 -27 -65 -32 -93 -17 -93 5 0 14 7 21
15 7 8 17 15 23 15 7 0 8 -130 3 -402 -8 -434 -2 -522 37 -592 27 -49 77 -75
205 -106 72 -17 92 -26 92 -40 0 -9 -18 -80 -39 -156 -22 -77 -72 -258 -112
-404 -39 -146 -87 -321 -106 -390 -18 -69 -40 -152 -47 -185 -8 -33 -30 -127
-50 -210 -57 -240 -81 -395 -150 -946 -7 -59 -17 -112 -21 -120 -6 -9 -3 -11
9 -6 15 6 16 1 10 -43 -6 -46 -5 -50 17 -59 15 -5 31 -5 42 1 13 7 230 261
314 368 7 9 27 161 47 355 33 318 40 356 95 585 32 135 84 333 115 440 60 205
214 680 225 692 3 4 69 -9 146 -28 154 -38 193 -38 224 1 55 71 74 386 51 830
-6 105 -15 231 -20 281 l-10 91 49 124 c26 68 103 282 171 474 67 193 138 386
157 429 45 101 42 143 -13 224 -68 98 -117 116 -397 148 -31 3 -59 10 -62 14
-2 4 19 18 47 31 29 13 76 47 104 75 73 71 88 124 82 293 -3 106 -7 134 -27
173 -98 203 -527 331 -913 273 -84 -12 -269 -54 -310 -70 -10 -4 -22 10 -38
44 -15 33 -32 53 -49 60 -25 9 -694 101 -738 101 -12 0 -179 -66 -370 -146
-289 -121 -354 -145 -383 -140 -19 3 -73 12 -120 21 -119 22 -259 22 -347 1
l-72 -18 -78 42 c-133 71 -291 182 -458 321 -88 74 -183 148 -210 166 -139 88
-238 98 -535 53z m4037 -711 c104 -14 182 -33 278 -70 78 -29 186 -94 189
-114 2 -17 -78 -63 -156 -89 -122 -41 -275 -51 -540 -37 -194 10 -232 14 -290
36 -134 49 -212 58 -453 53 -153 -3 -209 -1 -185 5 19 6 143 43 275 83 284 86
379 111 494 129 107 16 284 18 388 4z m588 -249 c9 -32 2 -25 -20 20 -13 27
-14 32 -2 20 8 -8 18 -26 22 -40z m-282 -938 c17 -15 25 -82 8 -82 -8 0 -51
89 -51 105 0 7 19 -3 43 -23z m-7985 -252 c-7 -10 -14 -17 -17 -15 -4 4 18 35
25 35 2 0 -1 -9 -8 -20z m8111 -382 c23 -94 47 -301 55 -458 14 -261 15 -357
7 -385 -9 -29 -9 -28 -11 15 -1 25 -3 56 -5 70 -2 14 -9 72 -15 130 -12 109
-30 229 -55 365 -29 159 -34 260 -19 345 8 46 18 27 43 -82z"/>
</g>
</svg>
